HIERARCHY
ROOT joint_Root
{
	OFFSET 0.0 0.0 0.0
	CHANNELS 6 Xposition Yposition Zposition Zrotation Xrotation Yrotation 
	JOINT Hips
	{
		OFFSET 4.5925 91.4895 -427.239
		CHANNELS 6 Xposition Yposition Zposition Zrotation Xrotation Yrotation 
		JOINT Spine
		{
			OFFSET 15.7357 0.0 0.0
			CHANNELS 6 Xposition Yposition Zposition Zrotation Xrotation Yrotation 
			JOINT Chest
			{
				OFFSET 8.98455 -0.406207 0.0
				CHANNELS 6 Xposition Yposition Zposition Zrotation Xrotation Yrotation 
				JOINT Neck
				{
					OFFSET 16.3773 0.0 0.0
					CHANNELS 6 Xposition Yposition Zposition Zrotation Xrotation Yrotation 
					JOINT Head
					{
						OFFSET 6.45672 0.0 0.0
						CHANNELS 6 Xposition Yposition Zposition Zrotation Xrotation Yrotation 
						End Site
						{
							OFFSET 0.0 0.0 0.0
						}
					}
				}
				JOINT Shoulder_L
				{
					OFFSET 12.9942 -0.242716 4.98039
					CHANNELS 6 Xposition Yposition Zposition Zrotation Xrotation Yrotation 
					JOINT UpperArm_L
					{
						OFFSET 5.34809 0.0 0.0
						CHANNELS 6 Xposition Yposition Zposition Zrotation Xrotation Yrotation 
						JOINT LowerArm_L
						{
							OFFSET 24.3286 1.87007e-05 0.0
							CHANNELS 6 Xposition Yposition Zposition Zrotation Xrotation Yrotation 
							JOINT Hand_L
							{
								OFFSET 22.2916 0.0 0.0
								CHANNELS 6 Xposition Yposition Zposition Zrotation Xrotation Yrotation 
								End Site
								{
									OFFSET 0.0 0.0 0.0
								}
							}
						}
					}
				}
				JOINT Shoulder_R
				{
					OFFSET 12.9945 -0.242716 -4.98039
					CHANNELS 6 Xposition Yposition Zposition Zrotation Xrotation Yrotation 
					JOINT UpperArm_R
					{
						OFFSET -5.34813 0.0 0.0
						CHANNELS 6 Xposition Yposition Zposition Zrotation Xrotation Yrotation 
						JOINT LowerArm_R
						{
							OFFSET -24.3289 0.000322201 0.0
							CHANNELS 6 Xposition Yposition Zposition Zrotation Xrotation Yrotation 
							JOINT Hand_R
							{
								OFFSET -22.2915 -0.000108084 0.0
								CHANNELS 6 Xposition Yposition Zposition Zrotation Xrotation Yrotation 
								End Site
								{
									OFFSET 0.0 0.0 0.0
								}
							}
						}
					}
				}
			}
		}
		JOINT UpperLeg_L
		{
			OFFSET -2.19248 -6.46944 0.0
			CHANNELS 6 Xposition Yposition Zposition Zrotation Xrotation Yrotation 
			JOINT LowerLeg_L
			{
				OFFSET 39.0811 0.0 -1.23785e-05
				CHANNELS 6 Xposition Yposition Zposition Zrotation Xrotation Yrotation 
				JOINT Foot_L
				{
					OFFSET 40.9854 0.0 -1.26872e-05
					CHANNELS 6 Xposition Yposition Zposition Zrotation Xrotation Yrotation 
					JOINT Toes_L
					{
						OFFSET 11.7543 0.0 0.0
						CHANNELS 6 Xposition Yposition Zposition Zrotation Xrotation Yrotation 
						End Site
						{
							OFFSET 0.0 0.0 0.0
						}
					}
				}
			}
		}
		JOINT UpperLeg_R
		{
			OFFSET -2.19251 6.46944 0.0
			CHANNELS 6 Xposition Yposition Zposition Zrotation Xrotation Yrotation 
			JOINT LowerLeg_R
			{
				OFFSET -39.0811 -0.00228153 -0.0401928
				CHANNELS 6 Xposition Yposition Zposition Zrotation Xrotation Yrotation 
				JOINT Foot_R
				{
					OFFSET -40.9854 0.0 0.0
					CHANNELS 6 Xposition Yposition Zposition Zrotation Xrotation Yrotation 
					JOINT Toes_R
					{
						OFFSET -11.7543 0.0 0.0
						CHANNELS 6 Xposition Yposition Zposition Zrotation Xrotation Yrotation 
						End Site
						{
							OFFSET 0.0 0.0 0.0
						}
					}
				}
			}
		}
	}
}
MOTION
Frames:	9
Frame Time:	0.0333333
0.000000 0.000000 0.000000 0.000000 0.000000 -0.000000 3.701030 79.391600 -430.581000 84.581200 -10.912100 -14.944200 15.735700 0.000005 -0.000001 95.085600 79.805200 -92.188600 8.984550 -0.406207 -0.000000 12.506000 1.910110 5.584430 16.377300 -0.000001 -0.000001 -1.437560 2.941940 -0.863253 6.456720 -0.000001 -0.000000 -7.660310 4.452810 -5.071260 12.994200 -0.242716 4.980390 -89.745000 -0.771821 -71.713900 5.348090 -0.000007 -0.000001 -69.898400 29.422400 10.361800 24.328600 0.000019 0.000005 18.479800 35.670300 -29.818200 22.291600 -0.000001 0.000005 -3.060170 5.399530 -2.922260 12.994500 -0.242716 -4.980390 88.963000 9.665020 -83.846500 -5.348130 -0.000001 -0.000004 -53.331800 13.615800 -33.161400 -24.328900 0.000322 -0.000009 -12.502000 -4.353390 -71.100500 -22.291500 -0.000108 -0.000004 23.361200 5.601430 -11.428000 -2.192480 -6.469440 -0.000000 -179.208000 -9.371260 -48.728800 39.081100 -0.000007 -0.000012 -0.379915 -0.321850 130.272000 40.985400 -0.000006 -0.000013 1.983640 1.946000 -18.257900 11.754300 -0.000000 0.000003 -0.006418 -0.074592 -19.612900 -2.192510 6.469440 -0.000001 -171.539000 7.810840 147.634000 -39.081100 -0.002282 -0.040193 0.114814 -0.055406 63.604700 -40.985400 0.000008 0.000006 3.643800 -4.122080 -94.874700 -11.754300 -0.000006 -0.000006 -0.003460 -0.045697 -18.431700
0.000000 0.000000 0.000000 0.000000 0.000000 -0.000000 3.950510 79.935900 -422.013000 86.969000 -14.076900 -15.654500 15.735700 0.000005 -0.000001 101.675000 80.058200 -100.436000 8.984550 -0.406207 -0.000000 11.684400 4.032410 2.064520 16.377300 -0.000001 -0.000001 -1.116690 2.884460 0.092422 6.456720 -0.000001 -0.000000 -7.624710 3.189690 -4.773830 12.994200 -0.242716 4.980390 -89.390900 -1.607020 -69.239100 5.348090 -0.000007 -0.000001 -66.976800 28.374200 20.490700 24.328600 0.000019 0.000005 19.979100 32.699600 -33.939000 22.291600 -0.000001 0.000005 -2.697570 5.453420 -4.762090 12.994500 -0.242716 -4.980390 89.403800 6.110350 -84.416100 -5.348130 -0.000001 -0.000004 -55.739400 9.746470 -46.560700 -24.328900 0.000322 -0.000009 -5.572870 -0.745935 -82.396400 -22.291500 -0.000108 -0.000004 22.845100 5.593860 -10.982100 -2.192480 -6.469440 -0.000000 174.580000 -8.621940 -61.711200 39.081100 -0.000007 -0.000012 -0.610445 -0.571545 133.114000 40.985400 -0.000006 -0.000013 7.468290 -1.697380 -28.006700 11.754300 -0.000000 0.000003 -0.008218 -0.089809 -20.234100 -2.192510 6.469440 -0.000001 -177.775000 10.041300 155.807000 -39.081100 -0.002282 -0.040193 0.020021 -0.010683 57.557300 -40.985400 0.000008 0.000006 3.125720 1.711870 -95.844200 -11.754300 -0.000006 -0.000006 -0.119503 -0.193590 -19.363600
0.000000 0.000000 0.000000 0.000000 0.000000 -0.000000 4.404330 82.200200 -411.974000 91.002700 -16.022000 -16.092200 15.735700 0.000005 -0.000001 106.852000 80.545800 -107.792000 8.984550 -0.406207 -0.000000 10.410100 5.422920 -2.374940 16.377300 -0.000001 -0.000001 0.075343 1.925030 0.693020 6.456720 -0.000001 -0.000000 -6.768000 0.969363 -3.158970 12.994200 -0.242716 4.980390 -88.407600 -3.934270 -67.943500 5.348090 -0.000007 -0.000001 -66.838300 29.808400 28.155400 24.328600 0.000019 0.000005 16.723900 24.492300 -35.933500 22.291600 -0.000001 0.000005 -1.447150 5.487100 -6.022280 12.994500 -0.242716 -4.980390 89.728000 2.269300 -83.163500 -5.348130 -0.000001 -0.000004 -57.419400 7.637870 -54.606200 -24.328900 0.000322 -0.000009 -5.073600 0.197290 -92.217700 -22.291500 -0.000108 -0.000004 23.736100 5.560870 -9.230360 -2.192480 -6.469440 -0.000000 169.123000 -5.200540 -66.750100 39.081100 -0.000007 -0.000012 -0.433818 -0.310163 125.565000 40.985400 -0.000006 -0.000013 8.831100 -6.990920 -42.543700 11.754300 -0.000000 0.000003 -0.005790 -0.068926 -19.381800 -2.192510 6.469440 -0.000001 174.238000 10.610100 165.873000 -39.081100 -0.002282 -0.040193 -0.039402 0.040710 46.341500 -40.985400 0.000008 0.000006 2.347390 5.331660 -87.980900 -11.754300 -0.000006 -0.000006 -0.033862 -0.234648 -26.196000
0.000000 0.000000 0.000000 0.000000 0.000000 -0.000000 4.525840 85.475400 -401.825000 93.335900 -16.111300 -17.450800 15.735700 0.000005 -0.000001 110.656000 81.328500 -113.024000 8.984550 -0.406207 -0.000000 8.628760 6.070710 -5.192990 16.377300 -0.000001 -0.000001 1.803270 0.475526 1.154210 6.456720 -0.000001 -0.000000 -5.972590 -0.864656 -1.983910 12.994200 -0.242716 4.980390 -87.329600 -6.512510 -67.645900 5.348090 -0.000007 -0.000001 -68.682000 28.628800 33.625000 24.328600 0.000019 0.000005 19.499100 24.648600 -40.333100 22.291600 -0.000001 0.000005 -1.271690 5.500220 -6.542190 12.994500 -0.242716 -4.980390 90.062100 -0.400403 -81.189300 -5.348130 -0.000001 -0.000004 -57.227700 6.897030 -58.359100 -24.328900 0.000322 -0.000009 -4.807910 0.776425 -99.150600 -22.291500 -0.000108 -0.000004 21.503200 5.510990 -6.981470 -2.192480 -6.469440 -0.000000 167.915000 -1.080560 -68.840000 39.081100 -0.000007 -0.000012 -0.162386 -0.063499 111.361000 40.985400 -0.000006 -0.000013 8.524570 -11.282200 -53.136100 11.754300 -0.000000 0.000003 -0.007736 -0.085871 -20.073300 -2.192510 6.469440 -0.000001 169.547000 12.394400 172.477000 -39.081100 -0.002282 -0.040193 0.006545 -0.004298 37.172800 -40.985400 0.000008 0.000006 2.628010 7.053380 -68.756600 -11.754300 -0.000006 -0.000006 -0.174857 -0.601610 -42.185300
0.000000 0.000000 0.000000 0.000000 0.000000 -0.000000 4.402500 88.924700 -392.068000 92.693300 -15.472000 -18.340200 15.735700 0.000005 -0.000001 113.558000 81.638800 -116.221000 8.984550 -0.406207 -0.000000 7.763150 6.656900 -5.778270 16.377300 -0.000001 -0.000001 3.357830 -0.364421 1.320430 6.456720 -0.000001 -0.000000 -5.848790 -2.292830 -0.961884 12.994200 -0.242716 4.980390 -86.924000 -7.598790 -67.884000 5.348090 -0.000007 -0.000001 -70.158400 24.593600 36.596000 24.328600 0.000019 0.000005 18.745200 21.897400 -42.300600 22.291600 -0.000001 0.000005 -1.508540 5.503670 -6.681960 12.994500 -0.242716 -4.980390 90.147900 -0.874261 -80.394200 -5.348130 -0.000001 -0.000004 -55.285000 6.915940 -58.597800 -24.328900 0.000322 -0.000009 -3.843290 0.899549 -103.152000 -22.291500 -0.000108 -0.000004 19.484100 5.478750 -5.700730 -2.192480 -6.469440 -0.000000 170.326000 0.599366 -67.391000 39.081100 -0.000007 -0.000012 0.028043 0.001362 92.761300 40.985400 -0.000006 -0.000013 7.471760 -13.560300 -61.140700 11.754300 -0.000000 0.000003 -0.005389 -0.065190 -19.229500 -2.192510 6.469440 -0.000001 167.037000 20.152200 177.321000 -39.081100 -0.002282 -0.040193 0.090441 -0.151407 29.921700 -40.985400 0.000008 0.000006 1.199240 14.093800 -44.267100 -11.754300 -0.000006 -0.000006 -0.209745 -0.661050 -44.980000
0.000000 0.000000 0.000000 0.000000 0.000000 -0.000000 3.689330 91.235800 -382.319000 90.401400 -13.916000 -17.407800 15.735700 0.000005 -0.000001 114.708000 81.230900 -117.041000 8.984550 -0.406207 -0.000000 8.370730 7.285380 -5.201150 16.377300 -0.000001 -0.000001 4.681650 -0.937272 1.701240 6.456720 -0.000001 -0.000000 -6.211280 -3.665070 0.429545 12.994200 -0.242716 4.980390 -86.981100 -7.448260 -67.861700 5.348090 -0.000007 -0.000001 -69.383700 18.352700 35.738400 24.328600 0.000019 0.000005 18.519700 19.908600 -44.529800 22.291600 -0.000001 0.000005 -0.484884 5.469510 -5.352850 12.994500 -0.242716 -4.980390 90.022800 -0.138406 -80.652800 -5.348130 -0.000001 -0.000004 -53.172500 8.352590 -54.639300 -24.328900 0.000322 -0.000009 -6.358060 1.554220 -103.680000 -22.291500 -0.000108 -0.000004 19.403200 5.467720 -5.285310 -2.192480 -6.469440 -0.000000 174.485000 0.297280 -60.974500 39.081100 -0.000007 -0.000012 0.107088 -0.035903 71.462100 40.985400 -0.000006 -0.000013 7.308630 -7.777150 -67.917000 11.754300 -0.000000 0.000003 -0.005001 -0.061481 -19.078300 -2.192510 6.469440 -0.000001 164.425000 27.817000 -176.338000 -39.081100 -0.002282 -0.040193 0.191836 -0.373632 26.774800 -40.985400 0.000008 0.000006 -4.979630 16.426400 -28.554300 -11.754300 -0.000006 -0.000006 -0.012514 -0.121552 -21.529000
0.000000 0.000000 0.000000 0.000000 0.000000 -0.000000 2.883650 91.861400 -372.515000 89.135300 -14.384800 -16.907900 15.735700 0.000005 -0.000001 117.800000 80.776900 -120.271000 8.984550 -0.406207 -0.000000 8.814250 8.538170 -5.604000 16.377300 -0.000001 -0.000001 4.372240 -1.313140 2.087410 6.456720 -0.000001 -0.000000 -5.693150 -4.321960 0.831317 12.994200 -0.242716 4.980390 -87.857900 -5.189500 -67.533000 5.348090 -0.000007 -0.000001 -67.731100 13.065000 32.439600 24.328600 0.000019 0.000005 18.218500 17.786200 -47.136500 22.291600 -0.000001 0.000005 3.357000 5.440110 -4.291400 12.994500 -0.242716 -4.980390 89.929200 0.457634 -81.204000 -5.348130 -0.000001 -0.000004 -52.936400 11.769500 -47.673600 -24.328900 0.000322 -0.000009 -6.341150 1.163430 -100.352000 -22.291500 -0.000108 -0.000004 19.582800 5.453420 -4.762480 -2.192480 -6.469440 -0.000000 175.932000 -3.408190 -52.972300 39.081100 -0.000007 -0.000012 0.022495 -0.020334 47.883800 40.985400 -0.000006 -0.000013 1.387440 0.104978 -73.051400 11.754300 -0.000000 0.000003 -0.005440 -0.065665 -19.248900 -2.192510 6.469440 -0.000001 163.912000 23.209200 -174.446000 -39.081100 -0.002282 -0.040193 0.239512 -0.368263 32.677800 -40.985400 0.000008 0.000006 -2.338720 12.590900 -32.624400 -11.754300 -0.000006 -0.000006 -0.015059 -0.138189 -22.211300
0.000000 0.000000 0.000000 0.000000 0.000000 -0.000000 1.858600 91.324300 -362.169000 86.841400 -14.674700 -14.677800 15.735700 0.000005 -0.000001 118.138000 79.735600 -120.232000 8.984550 -0.406207 -0.000000 10.625200 9.562900 -5.085030 16.377300 -0.000001 -0.000001 3.474050 -1.067190 2.242580 6.456720 -0.000001 -0.000000 -5.494960 -4.405740 0.906275 12.994200 -0.242716 4.980390 -89.506600 -1.194240 -67.550100 5.348090 -0.000007 -0.000001 -66.142200 8.073820 26.810500 24.328600 0.000019 0.000005 16.698900 15.271100 -48.717800 22.291600 -0.000001 0.000005 6.117630 5.426420 -3.816900 12.994500 -0.242716 -4.980390 89.728800 1.918760 -81.952600 -5.348130 -0.000001 -0.000004 -53.922400 16.343700 -39.069900 -24.328900 0.000322 -0.000009 -5.588540 0.254752 -92.598000 -22.291500 -0.000108 -0.000004 20.804100 5.461690 -5.062390 -2.192480 -6.469440 -0.000000 176.356000 -9.497210 -43.759100 39.081100 -0.000007 -0.000012 -0.031082 0.053378 30.212600 40.985400 -0.000006 -0.000013 -1.840540 2.937460 -74.172600 11.754300 -0.000000 0.000003 -0.005217 -0.063563 -19.163100 -2.192510 6.469440 -0.000001 168.941000 9.995860 -172.717000 -39.081100 -0.002282 -0.040193 0.229922 -0.261401 40.927000 -40.985400 0.000008 0.000006 -0.972271 2.423140 -30.612000 -11.754300 -0.000006 -0.000006 -0.014160 -0.132461 -21.976200
0.000000 0.000000 0.000000 0.000000 0.000000 -0.000000 1.024160 89.697500 -351.812000 85.832300 -13.483000 -13.418900 15.735700 0.000005 -0.000001 114.991000 79.482000 -117.048000 8.984550 -0.406207 -0.000000 11.560900 8.748310 -5.005560 16.377300 -0.000001 -0.000001 2.685330 -0.587589 2.610880 6.456720 -0.000001 -0.000000 -5.905290 -3.991410 1.799390 12.994200 -0.242716 4.980390 -91.100900 2.685540 -67.698500 5.348090 -0.000007 -0.000001 -65.290200 4.354830 18.277800 24.328600 0.000019 0.000005 15.101100 13.214200 -49.730900 22.291600 -0.000001 0.000005 6.539030 5.432010 -4.007940 12.994500 -0.242716 -4.980390 89.390200 4.577030 -82.403300 -5.348130 -0.000001 -0.000004 -55.726400 21.068300 -29.953600 -24.328900 0.000322 -0.000009 -7.113700 -1.267610 -79.949000 -22.291500 -0.000108 -0.000004 21.268000 5.493600 -6.278840 -2.192480 -6.469440 -0.000000 172.830000 -14.755200 -42.656700 39.081100 -0.000007 -0.000012 0.509920 -0.814882 32.038200 40.985400 -0.000006 -0.000013 6.260580 -4.764180 -76.399400 11.754300 -0.000000 0.000003 -0.005174 -0.063152 -19.146400 -2.192510 6.469440 -0.000001 173.489000 3.589030 -174.736000 -39.081100 -0.002282 -0.040193 0.245503 -0.163548 55.979400 -40.985400 0.000008 0.000006 0.443973 0.616765 -26.789900 -11.754300 -0.000006 -0.000006 -0.014587 -0.135198 -22.088500
